<?xml version="1.0" encoding="UTF-8"?>
<svg width="100pt" height="100pt" version="1.1" viewBox="0 0 100 100" xmlns="http://www.w3.org/2000/svg">
 <path d="m86.836 13.984c-1.0312 0.039063-2.0391 0.5-2.75 1.25-10.555 11.043-29.172 31.355-40.562 43.375l-14.094-10.781c-1.668-1.2773-4.3477-0.91797-5.625 0.75-1.2773 1.668-0.91797 4.3477 0.75 5.625l17 13c1.5547 1.1914 4.0039 0.98828 5.3438-0.4375 11.191-11.707 31.969-34.457 43-46 1.1094-1.1445 1.4297-2.9805 0.77344-4.4336s-2.2461-2.4258-3.8359-2.3477zm-77.844 8.0312v60c0 2.0938 1.9062 4 4 4h60c2.0938 0 4-1.9062 4-4v-28c0.03125-2.1133-1.8867-4.0586-4-4.0586-2.1133 0-4.0312 1.9453-4 4.0586v24h-52v-52h46c2.1133 0.03125 4.0586-1.8867 4.0586-4s-1.9453-4.0312-4.0586-4h-50c-2.3008 0.054687-3.957 2.3125-4 4z"/>
</svg>
